<mxfile host="app.diagrams.net" modified="2021-09-19T16:21:28.016Z" agent="5.0 (Macintosh; Intel Mac OS X 10_15_7) AppleWebKit/605.1.15 (KHTML, like Gecko) Version/14.1.2 Safari/605.1.15" etag="eVsv7uitw0g10l4dr2uQ" version="15.2.9" type="github">
  <diagram id="prtHgNgQTEPvFCAcTncT" name="Page-1">
    <mxGraphModel dx="651" dy="557" grid="1" gridSize="10" guides="1" tooltips="1" connect="1" arrows="1" fold="1" page="1" pageScale="1" pageWidth="827" pageHeight="1169" math="0" shadow="0">
      <root>
        <mxCell id="0" />
        <mxCell id="1" parent="0" />
        <mxCell id="wMbov_LMjufBeD3c2Yzf-22" value="Funcional de Gerencia de TI " style="swimlane;startSize=20;horizontal=1;containerType=tree;newEdgeStyle={&quot;edgeStyle&quot;:&quot;elbowEdgeStyle&quot;,&quot;startArrow&quot;:&quot;none&quot;,&quot;endArrow&quot;:&quot;none&quot;};" vertex="1" parent="1">
          <mxGeometry x="50" y="410" width="770" height="710" as="geometry" />
        </mxCell>
        <mxCell id="wMbov_LMjufBeD3c2Yzf-23" value="" style="edgeStyle=elbowEdgeStyle;elbow=vertical;startArrow=none;endArrow=none;rounded=0;" edge="1" parent="wMbov_LMjufBeD3c2Yzf-22" source="wMbov_LMjufBeD3c2Yzf-25" target="wMbov_LMjufBeD3c2Yzf-26">
          <mxGeometry relative="1" as="geometry" />
        </mxCell>
        <UserObject label="Gerencia General" treeRoot="1" id="wMbov_LMjufBeD3c2Yzf-25">
          <mxCell style="whiteSpace=wrap;html=1;align=center;treeFolding=1;treeMoving=1;newEdgeStyle={&quot;edgeStyle&quot;:&quot;elbowEdgeStyle&quot;,&quot;startArrow&quot;:&quot;none&quot;,&quot;endArrow&quot;:&quot;none&quot;};" vertex="1" parent="wMbov_LMjufBeD3c2Yzf-22">
            <mxGeometry x="371" y="50" width="120" height="60" as="geometry" />
          </mxCell>
        </UserObject>
        <mxCell id="wMbov_LMjufBeD3c2Yzf-26" value="Gerencia Nacional de TI" style="whiteSpace=wrap;html=1;align=center;verticalAlign=middle;treeFolding=1;treeMoving=1;newEdgeStyle={&quot;edgeStyle&quot;:&quot;elbowEdgeStyle&quot;,&quot;startArrow&quot;:&quot;none&quot;,&quot;endArrow&quot;:&quot;none&quot;};" vertex="1" parent="wMbov_LMjufBeD3c2Yzf-22">
          <mxGeometry x="381" y="145" width="100" height="60" as="geometry" />
        </mxCell>
        <mxCell id="wMbov_LMjufBeD3c2Yzf-49" value="" style="edgeStyle=elbowEdgeStyle;elbow=vertical;startArrow=none;endArrow=none;rounded=0;" edge="1" target="wMbov_LMjufBeD3c2Yzf-50" source="wMbov_LMjufBeD3c2Yzf-26" parent="wMbov_LMjufBeD3c2Yzf-22">
          <mxGeometry relative="1" as="geometry">
            <mxPoint x="440" y="195" as="sourcePoint" />
          </mxGeometry>
        </mxCell>
        <mxCell id="wMbov_LMjufBeD3c2Yzf-50" value="Sub- Gerencia de TI&lt;br&gt;(1)" style="whiteSpace=wrap;html=1;align=center;verticalAlign=middle;treeFolding=1;treeMoving=1;newEdgeStyle={&quot;edgeStyle&quot;:&quot;elbowEdgeStyle&quot;,&quot;startArrow&quot;:&quot;none&quot;,&quot;endArrow&quot;:&quot;none&quot;};" vertex="1" parent="wMbov_LMjufBeD3c2Yzf-22">
          <mxGeometry x="70" y="245" width="100" height="60" as="geometry" />
        </mxCell>
        <mxCell id="wMbov_LMjufBeD3c2Yzf-51" value="" style="edgeStyle=elbowEdgeStyle;elbow=vertical;startArrow=none;endArrow=none;rounded=0;" edge="1" target="wMbov_LMjufBeD3c2Yzf-52" source="wMbov_LMjufBeD3c2Yzf-26" parent="wMbov_LMjufBeD3c2Yzf-22">
          <mxGeometry relative="1" as="geometry">
            <mxPoint x="440" y="295" as="sourcePoint" />
          </mxGeometry>
        </mxCell>
        <mxCell id="wMbov_LMjufBeD3c2Yzf-52" value="Seguridad Informática&amp;nbsp;&lt;br&gt;(0)" style="whiteSpace=wrap;html=1;align=center;verticalAlign=middle;treeFolding=1;treeMoving=1;newEdgeStyle={&quot;edgeStyle&quot;:&quot;elbowEdgeStyle&quot;,&quot;startArrow&quot;:&quot;none&quot;,&quot;endArrow&quot;:&quot;none&quot;};" vertex="1" parent="wMbov_LMjufBeD3c2Yzf-22">
          <mxGeometry x="650" y="245" width="100" height="60" as="geometry" />
        </mxCell>
        <mxCell id="wMbov_LMjufBeD3c2Yzf-53" value="" style="edgeStyle=elbowEdgeStyle;elbow=vertical;startArrow=none;endArrow=none;rounded=0;" edge="1" target="wMbov_LMjufBeD3c2Yzf-54" source="wMbov_LMjufBeD3c2Yzf-26" parent="wMbov_LMjufBeD3c2Yzf-22">
          <mxGeometry relative="1" as="geometry">
            <mxPoint x="410" y="195" as="sourcePoint" />
          </mxGeometry>
        </mxCell>
        <mxCell id="wMbov_LMjufBeD3c2Yzf-54" value="Infraestructura /Servidores y Redes (1)" style="whiteSpace=wrap;html=1;align=center;verticalAlign=middle;treeFolding=1;treeMoving=1;newEdgeStyle={&quot;edgeStyle&quot;:&quot;elbowEdgeStyle&quot;,&quot;startArrow&quot;:&quot;none&quot;,&quot;endArrow&quot;:&quot;none&quot;};" vertex="1" parent="wMbov_LMjufBeD3c2Yzf-22">
          <mxGeometry x="381" y="620" width="100" height="60" as="geometry" />
        </mxCell>
        <mxCell id="wMbov_LMjufBeD3c2Yzf-56" value="Jefe de TI - Desarrollo&lt;br&gt;(1)" style="whiteSpace=wrap;html=1;align=center;verticalAlign=middle;treeFolding=1;treeMoving=1;newEdgeStyle={&quot;edgeStyle&quot;:&quot;elbowEdgeStyle&quot;,&quot;startArrow&quot;:&quot;none&quot;,&quot;endArrow&quot;:&quot;none&quot;};" vertex="1" parent="wMbov_LMjufBeD3c2Yzf-22">
          <mxGeometry x="490" y="335" width="100" height="60" as="geometry" />
        </mxCell>
        <mxCell id="wMbov_LMjufBeD3c2Yzf-55" value="" style="edgeStyle=elbowEdgeStyle;elbow=vertical;startArrow=none;endArrow=none;rounded=0;entryX=0.5;entryY=0;entryDx=0;entryDy=0;" edge="1" target="wMbov_LMjufBeD3c2Yzf-56" source="wMbov_LMjufBeD3c2Yzf-26" parent="wMbov_LMjufBeD3c2Yzf-22">
          <mxGeometry relative="1" as="geometry">
            <mxPoint x="410" y="195" as="sourcePoint" />
            <mxPoint x="580" y="325" as="targetPoint" />
            <Array as="points">
              <mxPoint x="431" y="315" />
              <mxPoint x="460" y="315" />
            </Array>
          </mxGeometry>
        </mxCell>
        <mxCell id="wMbov_LMjufBeD3c2Yzf-59" value="" style="edgeStyle=elbowEdgeStyle;elbow=vertical;startArrow=none;endArrow=none;rounded=0;entryX=0.5;entryY=0;entryDx=0;entryDy=0;" edge="1" target="wMbov_LMjufBeD3c2Yzf-60" source="wMbov_LMjufBeD3c2Yzf-26" parent="wMbov_LMjufBeD3c2Yzf-22">
          <mxGeometry relative="1" as="geometry">
            <mxPoint x="410" y="295" as="sourcePoint" />
            <mxPoint x="580" y="325" as="targetPoint" />
            <Array as="points">
              <mxPoint x="510" y="315" />
              <mxPoint x="510" y="405" />
            </Array>
          </mxGeometry>
        </mxCell>
        <mxCell id="wMbov_LMjufBeD3c2Yzf-60" value="Administrador de Base de datos&lt;br&gt;(1)" style="whiteSpace=wrap;html=1;align=center;verticalAlign=middle;treeFolding=1;treeMoving=1;newEdgeStyle={&quot;edgeStyle&quot;:&quot;elbowEdgeStyle&quot;,&quot;startArrow&quot;:&quot;none&quot;,&quot;endArrow&quot;:&quot;none&quot;};" vertex="1" parent="wMbov_LMjufBeD3c2Yzf-22">
          <mxGeometry x="620" y="425" width="100" height="60" as="geometry" />
        </mxCell>
        <mxCell id="wMbov_LMjufBeD3c2Yzf-61" value="" style="edgeStyle=elbowEdgeStyle;elbow=vertical;startArrow=none;endArrow=none;rounded=0;entryX=0.5;entryY=0;entryDx=0;entryDy=0;exitX=0.5;exitY=1;exitDx=0;exitDy=0;" edge="1" target="wMbov_LMjufBeD3c2Yzf-62" source="wMbov_LMjufBeD3c2Yzf-56" parent="wMbov_LMjufBeD3c2Yzf-22">
          <mxGeometry relative="1" as="geometry">
            <mxPoint x="406" y="295" as="sourcePoint" />
            <mxPoint x="596" y="325" as="targetPoint" />
            <Array as="points">
              <mxPoint x="506" y="405" />
            </Array>
          </mxGeometry>
        </mxCell>
        <mxCell id="wMbov_LMjufBeD3c2Yzf-62" value="Analista Senior - Desarrollo&lt;br&gt;(1)" style="whiteSpace=wrap;html=1;align=center;verticalAlign=middle;treeFolding=1;treeMoving=1;newEdgeStyle={&quot;edgeStyle&quot;:&quot;elbowEdgeStyle&quot;,&quot;startArrow&quot;:&quot;none&quot;,&quot;endArrow&quot;:&quot;none&quot;};" vertex="1" parent="wMbov_LMjufBeD3c2Yzf-22">
          <mxGeometry x="490" y="425" width="100" height="60" as="geometry" />
        </mxCell>
        <mxCell id="wMbov_LMjufBeD3c2Yzf-63" value="" style="edgeStyle=elbowEdgeStyle;elbow=vertical;startArrow=none;endArrow=none;rounded=0;" edge="1" target="wMbov_LMjufBeD3c2Yzf-64" source="wMbov_LMjufBeD3c2Yzf-50" parent="wMbov_LMjufBeD3c2Yzf-22">
          <mxGeometry relative="1" as="geometry">
            <mxPoint x="380" y="295" as="sourcePoint" />
          </mxGeometry>
        </mxCell>
        <mxCell id="wMbov_LMjufBeD3c2Yzf-64" value="Ejecutivo de Requerimientos y Proyectos&lt;br&gt;&amp;nbsp;(1)" style="whiteSpace=wrap;html=1;align=center;verticalAlign=middle;treeFolding=1;treeMoving=1;newEdgeStyle={&quot;edgeStyle&quot;:&quot;elbowEdgeStyle&quot;,&quot;startArrow&quot;:&quot;none&quot;,&quot;endArrow&quot;:&quot;none&quot;};" vertex="1" parent="wMbov_LMjufBeD3c2Yzf-22">
          <mxGeometry x="70" y="425" width="100" height="60" as="geometry" />
        </mxCell>
        <mxCell id="wMbov_LMjufBeD3c2Yzf-65" value="" style="edgeStyle=elbowEdgeStyle;elbow=vertical;startArrow=none;endArrow=none;rounded=0;" edge="1" target="wMbov_LMjufBeD3c2Yzf-66" source="wMbov_LMjufBeD3c2Yzf-26" parent="wMbov_LMjufBeD3c2Yzf-22">
          <mxGeometry relative="1" as="geometry">
            <mxPoint x="380" y="385" as="sourcePoint" />
          </mxGeometry>
        </mxCell>
        <mxCell id="wMbov_LMjufBeD3c2Yzf-66" value="Soporte de Aplicaciones y Mesa de Servicios&lt;br&gt;(1)" style="whiteSpace=wrap;html=1;align=center;verticalAlign=middle;treeFolding=1;treeMoving=1;newEdgeStyle={&quot;edgeStyle&quot;:&quot;elbowEdgeStyle&quot;,&quot;startArrow&quot;:&quot;none&quot;,&quot;endArrow&quot;:&quot;none&quot;};" vertex="1" parent="wMbov_LMjufBeD3c2Yzf-22">
          <mxGeometry x="230" y="425" width="110" height="60" as="geometry" />
        </mxCell>
        <mxCell id="wMbov_LMjufBeD3c2Yzf-67" value="" style="edgeStyle=elbowEdgeStyle;elbow=vertical;startArrow=none;endArrow=none;rounded=0;" edge="1" target="wMbov_LMjufBeD3c2Yzf-68" source="wMbov_LMjufBeD3c2Yzf-66" parent="wMbov_LMjufBeD3c2Yzf-22">
          <mxGeometry relative="1" as="geometry">
            <mxPoint x="404" y="485" as="sourcePoint" />
          </mxGeometry>
        </mxCell>
        <mxCell id="wMbov_LMjufBeD3c2Yzf-68" value="Soporte de Aplicaciones (1)" style="whiteSpace=wrap;html=1;align=center;verticalAlign=middle;treeFolding=1;treeMoving=1;newEdgeStyle={&quot;edgeStyle&quot;:&quot;elbowEdgeStyle&quot;,&quot;startArrow&quot;:&quot;none&quot;,&quot;endArrow&quot;:&quot;none&quot;};" vertex="1" parent="wMbov_LMjufBeD3c2Yzf-22">
          <mxGeometry x="160" y="520" width="110" height="60" as="geometry" />
        </mxCell>
        <mxCell id="wMbov_LMjufBeD3c2Yzf-69" value="" style="edgeStyle=elbowEdgeStyle;elbow=vertical;startArrow=none;endArrow=none;rounded=0;" edge="1" target="wMbov_LMjufBeD3c2Yzf-70" source="wMbov_LMjufBeD3c2Yzf-66" parent="wMbov_LMjufBeD3c2Yzf-22">
          <mxGeometry relative="1" as="geometry">
            <mxPoint x="339" y="765" as="sourcePoint" />
          </mxGeometry>
        </mxCell>
        <mxCell id="wMbov_LMjufBeD3c2Yzf-70" value="Mesa de Servicios&lt;br&gt;(2)" style="whiteSpace=wrap;html=1;align=center;verticalAlign=middle;treeFolding=1;treeMoving=1;newEdgeStyle={&quot;edgeStyle&quot;:&quot;elbowEdgeStyle&quot;,&quot;startArrow&quot;:&quot;none&quot;,&quot;endArrow&quot;:&quot;none&quot;};" vertex="1" parent="wMbov_LMjufBeD3c2Yzf-22">
          <mxGeometry x="230" y="620" width="110" height="60" as="geometry" />
        </mxCell>
      </root>
    </mxGraphModel>
  </diagram>
</mxfile>
